<svg width="800" height="500" xmlns="http://www.w3.org/2000/svg">
 <g id="Layer_1">
  <title>Layer 1</title>
  <g id="svg_1" stroke="null">
   <path id="svg_2" fill="#6bbace" stroke-width="2" stroke-miterlimit="10" d="m483,240.55554l0,118.88892c0,26.1557 21.74988,47.55554 48.33337,47.55554l193.33331,0c26.5835,0 48.33331,-21.39984 48.33331,-47.55554l0,-118.88892c0,-26.15552 -21.74982,-47.55554 -48.33331,-47.55554l-193.33331,0c-26.5835,0 -48.33337,21.40002 -48.33337,47.55554z" stroke="#000000"/>
  </g>
  <line fill="none" stroke-width="2" x1="487.00001" y1="253" x2="769" y2="254" id="svg_5" stroke="#000000"/>
  <line fill="none" stroke-width="2" x1="628" y1="198" x2="628" y2="250" id="svg_6" stroke="#000000"/>
  <text fill="#000000" stroke="#000000" stroke-width="0" x="531" y="228" id="svg_7" font-size="16" font-family="Noto Sans JP" text-anchor="start" xml:space="preserve" font-weight="bold">Commit</text>
  <text fill="#000000" stroke="#000000" stroke-width="0" x="683" y="228" id="svg_8" font-size="16" font-family="Noto Sans JP" text-anchor="start" xml:space="preserve" font-weight="normal">236</text>
  <text fill="#000000" stroke="#000000" stroke-width="0" y="288" id="svg_9" font-size="16" font-family="Noto Sans JP" text-anchor="start" xml:space="preserve" font-weight="normal" x="508">tree 180336bf</text>
  <path fill="#000000" stroke="#000000" stroke-width="0" d="m624.97131,167.67635l10.30505,-6.87273l-19.92572,0l-19.92566,0l0,-4.25446l0,-4.25447l19.69757,0c10.83264,0 19.69556,-0.21558 19.69556,-0.47925c0,-0.26341 -4.31244,-3.35634 -9.58301,-6.87279l-9.58295,-6.39349l8.85895,0l8.85693,0l13.52844,9.0085l13.5285,9.00874l-13.55426,8.99121l-13.5542,8.99155l-9.32513,0l-9.32709,0l10.30701,-6.87282l0,0z" id="svg_16" transform="rotate(90 627.925 156.549)"/>
  <text fill="#000000" stroke="#000000" stroke-width="0" x="583" y="110" id="svg_17" font-size="24" font-family="Noto Sans JP" text-anchor="start" xml:space="preserve" font-weight="normal" font-style="italic">8d342fc4</text>
  <text fill="#000000" stroke="#000000" stroke-width="0" y="330" id="svg_18" font-size="16" font-family="Noto Sans JP" text-anchor="start" xml:space="preserve" font-weight="normal" x="508">author test &lt;ima@gmail.com&gt;</text>
  <text fill="#000000" stroke="#000000" stroke-width="0" y="351" id="svg_19" font-size="16" font-family="Noto Sans JP" text-anchor="start" xml:space="preserve" font-weight="normal" x="508">commiter test &lt;ima@gmail.com&gt;</text>
  <text style="cursor: move;" fill="#000000" stroke="#000000" stroke-width="0" y="377" id="svg_20" font-size="16" font-family="Noto Sans JP" text-anchor="start" xml:space="preserve" font-weight="normal" x="508">Second commit</text>
  <g id="svg_4" stroke="null">
   <path id="svg_3" fill="#c9c95a" stroke-width="2" stroke-miterlimit="10" d="m26,240.55554l0,118.88892c0,26.1557 21.74988,47.55554 48.33337,47.55554l193.33331,0c26.5835,0 48.33331,-21.39984 48.33331,-47.55554l0,-118.88892c0,-26.15552 -21.74982,-47.55554 -48.33331,-47.55554l-193.33331,0c-26.5835,0 -48.33337,21.40002 -48.33337,47.55554z" stroke="#000000"/>
  </g>
  <line fill="none" stroke-width="2" x1="30.00001" y1="253" x2="312" y2="254" id="svg_10" stroke="#000000"/>
  <line fill="none" stroke-width="2" x1="171" y1="198" x2="171" y2="250" id="svg_11" stroke="#000000"/>
  <text fill="#000000" stroke="#000000" stroke-width="0" x="86" y="228" id="svg_12" font-size="16" font-family="Noto Sans JP" text-anchor="start" xml:space="preserve" font-weight="bold">Blob</text>
  <text fill="#000000" stroke="#000000" stroke-width="0" x="228" y="228" id="svg_13" font-size="16" font-family="Noto Sans JP" text-anchor="start" xml:space="preserve" font-weight="normal">19</text>
  <text fill="#000000" stroke="#000000" stroke-width="0" y="288" id="svg_14" font-size="16" font-family="Noto Sans JP" text-anchor="start" xml:space="preserve" font-weight="normal" x="51">Second with update</text>
  <path fill="#000000" stroke="#000000" stroke-width="0" d="m167.97131,167.67635l10.30505,-6.87273l-19.92572,0l-19.92566,0l0,-4.25446l0,-4.25447l19.69757,0c10.83264,0 19.69556,-0.21558 19.69556,-0.47925c0,-0.26341 -4.31244,-3.35634 -9.58301,-6.87279l-9.58295,-6.39349l8.85895,0l8.85693,0l13.52844,9.0085l13.5285,9.00874l-13.55426,8.99121l-13.5542,8.99155l-9.32513,0l-9.32709,0l10.30701,-6.87282l0,0z" id="svg_15" transform="rotate(90 170.925 156.549)"/>
  <text fill="#000000" stroke="#000000" stroke-width="0" x="127" y="110" id="svg_21" font-size="24" font-family="Noto Sans JP" text-anchor="start" xml:space="preserve" font-weight="normal" font-style="italic">f4ed07be</text>
  <text style="cursor: move;" fill="#000000" stroke="#000000" stroke-width="0" y="309" id="svg_25" font-size="16" font-family="Noto Sans JP" text-anchor="start" xml:space="preserve" font-weight="normal" x="508">parent f57e6e41</text>
 </g>

</svg>