<svg width="800" height="500" xmlns="http://www.w3.org/2000/svg">
 <g>
  <title>Layer 1</title>
  <line id="svg_16" y2="503" x2="-209" y1="504" x1="-209" stroke="#000" fill="none"/>
  <ellipse stroke-width="0" ry="35" rx="35" id="svg_8" cy="428" cx="146" stroke="#000" fill="#8CD79F"/>
  <ellipse stroke-width="0" ry="35" rx="35" id="svg_2" cy="313" cx="146" stroke="#000" fill="#8CD79F"/>
  <ellipse stroke-width="0" ry="35" rx="35" id="svg_3" cy="198" cx="261" stroke="#000" fill="#6bbace"/>
  <ellipse stroke-width="0" ry="35" rx="35" id="svg_4" cy="83" cx="261" stroke="#000" fill="#6bbace"/>
  <ellipse stroke-width="0" ry="35" rx="35" id="svg_14" cy="428" cx="647" stroke="#000" fill="#8CD79F"/>
  <ellipse stroke-width="0" ry="35" rx="35" id="svg_15" cy="313" cx="647" stroke="#000" fill="#8CD79F"/>
  <ellipse stroke-width="0" ry="35" rx="35" id="svg_25" cy="83" cx="647" stroke="#000" fill="#6bbace"/>
  <ellipse stroke-width="0" ry="35" rx="35" id="svg_26" cy="198" cx="648" stroke="#000" fill="#6bbace"/>
  <line fill="none" stroke="#000" x1="146" y1="353" x2="146" y2="388" id="svg_51"/>
  <line fill="none" stroke="#000" x1="648" y1="353" x2="648" y2="388" id="svg_52"/>
  <line fill="none" x1="203.61937" y1="214.42677" x2="203.61937" y2="294.77667" id="svg_53" transform="rotate(45 203.619 254.602)" stroke="#000"/>
  <line fill="none" stroke="#000" x1="262" y1="124" x2="262" y2="159" id="svg_54"/>
  <line fill="none" stroke="#000" x1="648" y1="124" x2="648" y2="159" id="svg_55"/>
  <line fill="none" stroke="#000" x1="648" y1="238" x2="648" y2="273" id="svg_56"/>
  <path fill="#aa56ff" d="m34.80499,290.48499l54.75,0l18.25001,20l-18.25001,20l-54.75,0l18.25,-20l-18.25,-20z" id="svg_59" stroke-width="0" stroke="#000"/>
  <path fill="#e5e5e5" d="m325.67999,227.95001l95.45212,0l79.54788,34.99994l-79.54788,35.00006l-95.45212,0l0,-70z" id="svg_66" stroke="#000" stroke-width="0"/>
  <text fill="#000000" stroke="#000" x="332" y="269" id="svg_67" stroke-width="0" font-size="18" font-family="Noto Sans JP" text-anchor="start" xml:space="preserve" font-style="italic">git merge branch1</text>
  <path fill="#bf5f00" d="m148.80499,62.48499l54.75,0l18.25,20l-18.25,20l-54.75,0l18.25,-20l-18.25,-20z" id="svg_69" stroke-width="0" stroke="#000"/>
  <path fill="#aa56ff" d="m534.80499,291.48499l54.75,0l18.25,20l-18.25,20l-54.75,0l18.25,-20l-18.25,-20z" id="svg_71" stroke-width="0" stroke="#000"/>
  <path fill="#bf5f00" d="m686.80499,62.48499l54.75,0l18.25,20.00001l-18.25,20l-54.75,0l18.25,-20l-18.25,-20.00001z" id="svg_73" stroke-width="0" stroke="#000" filter="url(#svg_73_blur)" transform="rotate(180 723.305 82.485)"/>
  <text fill="#ffffff" stroke="#000" stroke-width="0" x="59" y="314" id="svg_74" font-size="12" font-family="Noto Sans JP" text-anchor="start" xml:space="preserve" font-weight="bold">master</text>
  <text fill="#ffffff" stroke="#000" stroke-width="0" x="170" y="86" id="svg_75" font-size="12" font-family="Noto Sans JP" text-anchor="start" xml:space="preserve" font-weight="bold">branch1</text>
  <text fill="#ffffff" stroke="#000" stroke-width="0" x="560" y="315" id="svg_76" font-size="12" font-family="Noto Sans JP" text-anchor="start" xml:space="preserve" font-weight="bold">master</text>
  <path fill="#aa56ff" d="m534.80499,63.48499l54.75,0l18.25,20l-18.25,20l-54.75,0l18.25,-20l-18.25,-20z" id="svg_77" stroke-width="0" stroke="#000"/>
  <text fill="#ffffff" stroke="#000" stroke-width="0" x="560" y="87" id="svg_78" font-size="12" font-family="Noto Sans JP" text-anchor="start" xml:space="preserve" font-weight="bold">master</text>
  <text fill="#ffffff" stroke="#000" stroke-width="0" x="697" y="86" id="svg_79" font-size="12" font-family="Noto Sans JP" text-anchor="start" xml:space="preserve" font-weight="bold">branch1</text>
 </g>
 <defs>
  <filter id="svg_73_blur">
   <feGaussianBlur in="SourceGraphic" stdDeviation="0"/>
  </filter>
 </defs>
</svg>