<svg width="830" height="500" xmlns="http://www.w3.org/2000/svg">
 <g>
  <title>Layer 1</title>
  <ellipse stroke-width="0" ry="35" rx="35" id="svg_1" cy="369" cx="125" stroke="#000" fill="#6bbace"/>
  <ellipse stroke-width="0" ry="35" rx="35" id="svg_2" cy="370" cx="328" stroke="#000" fill="#8CD79F"/>
  <ellipse stroke-width="0" ry="35" rx="35" id="svg_3" cy="210" cx="515" stroke="#000" fill="#8CD79F"/>
  <ellipse stroke-width="0" ry="35" rx="35" id="svg_4" cy="210" cx="757" stroke="#000" fill="#c9c95a"/>
  <ellipse stroke-width="0" ry="35" rx="35" id="svg_6" cy="370" cx="757" stroke="#000" fill="#c9c95a"/>
  <line stroke="#000" id="svg_15" y2="369" x2="288" y1="369" x1="165" fill="none"/>
  <line id="svg_16" y2="503" x2="-209" y1="504" x1="-209" stroke="#000" fill="none"/>
  <line stroke="#000" id="svg_17" y2="210" x2="477" y1="335" x1="347.00001" fill="none"/>
  <line stroke="#000" id="svg_19" y2="210" x2="719" y1="210" x1="553" fill="none"/>
  <line stroke="#000" id="svg_21" y2="369" x2="717" y1="369" x1="369.00002" fill="none"/>
  <text xml:space="preserve" text-anchor="start" font-family="Noto Sans JP" font-size="10" stroke-width="0" id="svg_24" y="419" x="274" stroke="#000" fill="#000000">B16e1493 -&gt; tp-git-objects</text>
  <text xml:space="preserve" text-anchor="start" font-family="Noto Sans JP" font-size="10" stroke-width="0" id="svg_25" y="419" x="689" stroke="#000" fill="#000000">0a4e3a09 -&gt;"mon premier fichier"</text>
  <text stroke="#000" xml:space="preserve" text-anchor="start" font-family="Noto Sans JP" font-size="10" stroke-width="0" id="svg_26" y="419" x="75" fill="#000000">F57e6e4 -&gt; first-commit</text>
  <text xml:space="preserve" text-anchor="start" font-family="Noto Sans JP" font-size="10" stroke-width="0" id="svg_28" y="260" x="467" stroke="#000" fill="#000000">B16e1493 -&gt; first-folder</text>
  <text xml:space="preserve" text-anchor="start" font-family="Noto Sans JP" font-size="10" stroke-width="0" id="svg_29" y="260" x="714" stroke="#000" fill="#000000">e019be00 -&gt; "second"</text>
  <ellipse stroke-width="0" ry="35" rx="35" id="svg_7" cy="90" cx="125" stroke="#000" fill="#6bbace"/>
  <ellipse stroke-width="0" ry="35" rx="35" id="svg_8" cy="90" cx="327" stroke="#000" fill="#8CD79F"/>
  <ellipse stroke-width="0" ry="35" rx="35" id="svg_9" cy="90" cx="757" stroke="#000" fill="#c9c95a"/>
  <text stroke="#000" xml:space="preserve" text-anchor="start" font-family="Noto Sans JP" font-size="10" stroke-width="0" id="svg_10" y="141" x="68" fill="#000000">8d342fc4 -&gt; second commit</text>
  <line fill="none" x1="125" y1="147" x2="125" y2="329" id="svg_11" stroke="#000"/>
  <text xml:space="preserve" text-anchor="start" font-family="Noto Sans JP" font-size="10" stroke-width="0" id="svg_12" y="141" x="276" stroke="#000" fill="#000000">180336bf -&gt; tp-git-objects</text>
  <line stroke="#000" id="svg_13" y2="90" x2="288" y1="90" x1="165" fill="none"/>
  <text xml:space="preserve" text-anchor="start" font-family="Noto Sans JP" font-size="10" stroke-width="0" id="svg_18" y="141" x="687" stroke="#000" fill="#000000">f4ed07be -&gt; "second with update"</text>
  <ellipse stroke-width="0" ry="35" rx="35" id="svg_20" cy="90" cx="514" stroke="#000" fill="#8CD79F"/>
  <text xml:space="preserve" text-anchor="start" font-family="Noto Sans JP" font-size="10" stroke-width="0" id="svg_22" y="141" x="467" stroke="#000" fill="#000000">4cd0b30a -&gt; first-folder</text>
  <line id="svg_23" y2="90" x2="475" y1="90" x1="367" fill="none" stroke="#000"/>
  <line stroke="#000" id="svg_27" y2="90" x2="719" y1="90" x1="553" fill="none"/>
  <line fill="none" x1="359.00001" y1="115.99999" x2="726.99999" y2="342" id="svg_30" stroke-dasharray="2,2" stroke="#000"/>
  <path stroke="#000" stroke-width="0" id="svg_31" d="m8.685,74.62998l57.00034,0l18.99966,17l-18.99966,17l-57.00034,0l19.00013,-17l-19.00013,-17z" fill="#ff5656"/>
  <text font-weight="bold" stroke="#000" xml:space="preserve" text-anchor="start" font-family="Noto Sans JP" font-size="12" stroke-width="0" id="svg_32" y="95" x="31" fill="#000000">branch1</text>
 </g>

</svg>