<svg width="800" height="500" xmlns="http://www.w3.org/2000/svg">
 <g>
  <title>Layer 1</title>
  <ellipse fill="#6bbace" stroke="#000" cx="83" cy="369" id="svg_1" rx="35" ry="35" stroke-width="0"/>
  <ellipse fill="#8CD79F" stroke="#000" cx="286" cy="370" id="svg_2" rx="35" ry="35" stroke-width="0"/>
  <ellipse fill="#8CD79F" stroke="#000" cx="473" cy="210" id="svg_3" rx="35" ry="35" stroke-width="0"/>
  <ellipse fill="#c9c95a" stroke="#000" cx="715" cy="210" id="svg_4" rx="35" ry="35" stroke-width="0"/>
  <ellipse fill="#c9c95a" stroke="#000" cx="715" cy="370" id="svg_6" rx="35" ry="35" stroke-width="0"/>
  <line fill="none" x1="123" y1="369" x2="246" y2="369" id="svg_15" stroke="#000"/>
  <line fill="none" stroke="#000" x1="-209" y1="504" x2="-209" y2="503" id="svg_16"/>
  <line fill="none" x1="305.00001" y1="335" x2="435" y2="210" id="svg_17" stroke="#000"/>
  <line fill="none" x1="511" y1="210" x2="677" y2="210" id="svg_19" stroke="#000"/>
  <line fill="none" x1="327.00002" y1="369" x2="675" y2="369" id="svg_21" stroke="#000"/>
  <text fill="#000000" stroke="#000" x="232" y="419" id="svg_24" stroke-width="0" font-size="10" font-family="Noto Sans JP" text-anchor="start" xml:space="preserve">B16e1493 -&gt; tp-git-objects</text>
  <text fill="#000000" stroke="#000" x="647" y="419" id="svg_25" stroke-width="0" font-size="10" font-family="Noto Sans JP" text-anchor="start" xml:space="preserve">0a4e3a09 -&gt;"mon premier fichier"</text>
  <text fill="#000000" x="33" y="419" id="svg_26" stroke-width="0" font-size="10" font-family="Noto Sans JP" text-anchor="start" xml:space="preserve" stroke="#000">F57e6e4 -&gt; first-commit</text>
  <text fill="#000000" stroke="#000" x="425" y="260" id="svg_28" stroke-width="0" font-size="10" font-family="Noto Sans JP" text-anchor="start" xml:space="preserve">B16e1493 -&gt; first-folder</text>
  <text fill="#000000" stroke="#000" x="672" y="260" id="svg_29" stroke-width="0" font-size="10" font-family="Noto Sans JP" text-anchor="start" xml:space="preserve">e019be00 -&gt; "second"</text>
  <ellipse fill="#6bbace" stroke="#000" cx="83" cy="90" id="svg_7" rx="35" ry="35" stroke-width="0"/>
  <ellipse fill="#8CD79F" stroke="#000" cx="285" cy="90" id="svg_8" rx="35" ry="35" stroke-width="0"/>
  <ellipse fill="#c9c95a" stroke="#000" cx="715" cy="90" id="svg_9" rx="35" ry="35" stroke-width="0"/>
  <text style="cursor: move;" fill="#000000" x="26" y="141" id="svg_10" stroke-width="0" font-size="10" font-family="Noto Sans JP" text-anchor="start" xml:space="preserve" stroke="#000">8d342fc4 -&gt; second commit</text>
  <line stroke="#000" id="svg_11" y2="329" x2="83" y1="147" x1="83" fill="none"/>
  <text style="cursor: move;" fill="#000000" stroke="#000" x="234" y="141" id="svg_12" stroke-width="0" font-size="10" font-family="Noto Sans JP" text-anchor="start" xml:space="preserve">180336bf -&gt; tp-git-objects</text>
  <line fill="none" x1="123" y1="90" x2="246" y2="90" id="svg_13" stroke="#000"/>
  <text style="cursor: move;" fill="#000000" stroke="#000" x="645" y="141" id="svg_18" stroke-width="0" font-size="10" font-family="Noto Sans JP" text-anchor="start" xml:space="preserve">f4ed07be -&gt; "second with update"</text>
  <ellipse fill="#8CD79F" stroke="#000" cx="472" cy="90" id="svg_20" rx="35" ry="35" stroke-width="0"/>
  <text style="cursor: move;" fill="#000000" stroke="#000" x="425" y="141" id="svg_22" stroke-width="0" font-size="10" font-family="Noto Sans JP" text-anchor="start" xml:space="preserve">4cd0b30a -&gt; first-folder</text>
  <line stroke="#000" fill="none" x1="325" y1="90" x2="433" y2="90" id="svg_23"/>
  <line fill="none" x1="511" y1="90" x2="677" y2="90" id="svg_27" stroke="#000"/>
  <line stroke="#000" stroke-dasharray="2,2" id="svg_30" y2="342" x2="684.99999" y1="115.99999" x1="317.00001" fill="none"/>
 </g>

</svg>