<svg width="800" height="600" xmlns="http://www.w3.org/2000/svg">
 <g id="Layer_1">
  <title>Layer 1</title>
  <path stroke="#000" stroke-width="0" id="svg_7" d="m36,80l128,0l0,50l-128,0l0,-50z" opacity="undefined" fill="#c9c95a"/>
  <text font-weight="bold" xml:space="preserve" text-anchor="start" font-family="Noto Sans JP" font-size="16" id="svg_17" y="233" x="240" stroke-width="0" stroke="#000" fill="#ffffff">Stash zone</text>
  <path stroke="#000" stroke-width="0" id="svg_18" d="m185,80l128,0l0,50l-128,0l0,-50z" opacity="undefined" fill="#ff5656"/>
  <path stroke="#000" stroke-width="0" id="svg_20" d="m333,80l128,0l0,50l-128,0l0,-50z" opacity="undefined" fill="#6bbace"/>
  <path stroke="#000" stroke-width="0" id="svg_21" d="m482,80l128,0l0,50l-128,0l0,-50z" opacity="undefined" fill="#8cd79f"/>
  <path stroke="#000" stroke-width="0" id="svg_22" d="m630,80l128,0l0,50l-128,0l0,-50z" opacity="undefined" fill="#b2b2b2"/>
  <text font-weight="bold" xml:space="preserve" text-anchor="start" font-family="Noto Sans JP" font-size="15" id="svg_23" y="110" x="67" stroke-width="0" stroke="#000" fill="#ffffff">Stash zone</text>
  <text font-weight="bold" xml:space="preserve" text-anchor="start" font-family="Noto Sans JP" font-size="15" id="svg_24" y="110" x="189" stroke-width="0" stroke="#000" fill="#ffffff">Working directory</text>
  <text font-weight="bold" xml:space="preserve" text-anchor="start" font-family="Noto Sans JP" font-size="15" id="svg_25" y="110" x="356" stroke-width="0" stroke="#000" fill="#ffffff">Staging zone</text>
  <text font-weight="bold" xml:space="preserve" text-anchor="start" font-family="Noto Sans JP" font-size="15" id="svg_27" y="110" x="494" stroke-width="0" stroke="#000" fill="#ffffff">Local repository</text>
  <text font-weight="bold" xml:space="preserve" text-anchor="start" font-family="Noto Sans JP" font-size="15" id="svg_28" y="110" x="635" stroke-width="0" stroke="#000" fill="#ffffff">Remote repository</text>
  <line stroke="#000" id="svg_29" y2="477" x2="100" y1="130" x1="100" fill="none"/>
  <line stroke="#000" id="svg_31" y2="477" x2="250" y1="130" x1="250" fill="none"/>
  <line stroke="#000" id="svg_32" y2="477" x2="397" y1="130" x1="397" fill="none"/>
  <line stroke="#000" id="svg_33" y2="477" x2="545" y1="130" x1="545" fill="none"/>
  <line stroke="#000" id="svg_34" y2="477" x2="692" y1="130" x1="692" fill="none"/>
  <path stroke-width="0" stroke="#000" id="svg_41" d="m253.66,174.09999l103.5,0l34.5,23.99979l-34.5,24.00021l-103.5,0l34.5,-24.00021l-34.5,-23.99979z" fill="#7f003f"/>
  <path stroke-width="0" stroke="#000" id="svg_42" d="m399.66,174.09999l103.5,0l34.50003,23.99979l-34.50003,24.00021l-103.5,0l34.5,-24.00021l-34.5,-23.99979z" fill="#7f003f"/>
  <path stroke-width="0" stroke="#000" id="svg_43" d="m548.66003,175.09999l103.49994,0l34.50006,23.99979l-34.50006,24.00021l-103.49994,0l34.49994,-24.00021l-34.49994,-23.99979z" fill="#7f003f"/>
  <path stroke-width="0" stroke="#000" transform="rotate(180 469.66 303.1)" id="svg_44" d="m253.66003,279.10001l323.99982,0l108.00018,23.99979l-108.00018,24.00021l-323.99982,0l107.99982,-24.00021l-107.99982,-23.99979z" fill="#7f003f"/>
  <path stroke-width="0" transform="rotate(180 174.66 395.1)" stroke="#000" id="svg_45" d="m105.66,371.10001l103.5,0l34.5,23.99979l-34.5,24.00021l-103.5,0l34.5,-24.00021l-34.5,-23.99979z" fill="#7f003f"/>
  <text font-style="italic" xml:space="preserve" text-anchor="start" font-family="Noto Sans JP" font-size="15" id="svg_48" y="203" x="301" stroke-width="0" stroke="#000" fill="#ffffff">git add</text>
  <text font-style="italic" xml:space="preserve" text-anchor="start" font-family="Noto Sans JP" font-size="15" id="svg_50" y="203" x="443" stroke-width="0" stroke="#000" fill="#ffffff">git commit</text>
  <text font-style="italic" xml:space="preserve" text-anchor="start" font-family="Noto Sans JP" font-size="15" id="svg_51" y="203" x="598" stroke-width="0" stroke="#000" fill="#ffffff">git push</text>
  <text style="cursor: move;" font-style="italic" xml:space="preserve" text-anchor="start" font-family="Noto Sans JP" font-size="15" id="svg_52" y="306" x="369" stroke-width="0" stroke="#000" fill="#ffffff">git pull (git fetch + git merge)</text>
  <text font-style="italic" xml:space="preserve" text-anchor="start" font-family="Noto Sans JP" font-size="15" id="svg_53" y="400" x="148" stroke-width="0" stroke="#000" fill="#ffffff">git stash</text>
 </g>
</svg>